<?xml version="1.0" standalone="no"?>
<!DOCTYPE svg PUBLIC "-//W3C//DTD SVG 20010904//EN"
 "http://www.w3.org/TR/2001/REC-SVG-20010904/DTD/svg10.dtd">
<svg version="1.0" xmlns="http://www.w3.org/2000/svg"
 width="1000.000000pt" height="1000.000000pt" viewBox="0 0 1000.000000 1000.000000"
 preserveAspectRatio="xMidYMid meet">
<metadata>
Created by potrace 1.14, written by Peter Selinger 2001-2017
</metadata>
<g transform="translate(0.000000,1000.000000) scale(0.100000,-0.100000)"
fill="#000000" stroke="none">
<path d="M0 5000 l0 -5000 5000 0 5000 0 0 5000 0 5000 -5000 0 -5000 0 0
-5000z m8425 1406 c19 -8 44 -30 55 -48 19 -32 20 -49 20 -608 0 -641 -1 -650
-66 -748 -27 -41 -57 -68 -132 -116 -255 -165 -2036 -1278 -2059 -1287 -26
-10 -51 -6 -91 14 -51 25 -52 34 -52 490 0 346 -3 433 -15 474 -39 132 -204
203 -326 140 -24 -12 -437 -269 -918 -571 -480 -302 -886 -553 -901 -559 -45
-17 -100 1 -127 42 l-23 34 0 431 c0 273 -4 445 -11 469 -6 21 -27 56 -46 78
-65 72 -151 101 -233 79 -28 -8 -381 -223 -951 -580 -499 -313 -918 -572 -931
-575 -37 -9 -94 19 -118 57 -19 32 -20 49 -20 608 0 641 1 650 66 748 27 41
57 68 132 116 251 162 2036 1278 2058 1286 42 16 112 -10 131 -48 4 -9 10
-222 13 -472 6 -502 3 -481 72 -550 71 -71 184 -91 269 -47 24 12 437 269 918
571 481 302 886 554 902 559 44 17 99 -2 126 -42 l23 -34 0 -431 c0 -273 4
-445 11 -469 6 -21 27 -56 46 -78 65 -72 151 -101 233 -79 28 8 381 223 950
580 498 312 912 570 920 573 25 9 39 8 75 -7z"/>
</g>
</svg>
